<?xml version="1.0" encoding="utf-8"?>
<!-- Generator: Adobe Illustrator 21.1.0, SVG Export Plug-In . SVG Version: 6.00 Build 0)  -->
<svg version="1.1" xmlns="http://www.w3.org/2000/svg" xmlns:xlink="http://www.w3.org/1999/xlink" x="0px" y="0px" width="137px"
	 height="22px" viewBox="0 0 137 22" style="enable-background:new 0 0 137 22;" xml:space="preserve">
<style type="text/css">
	.st0{fill:#FFFFFF;}
</style>
<g id="Capa_1">
</g>
<g id="Layer_1">
	<g>
		<g>
			<g>
				<g>
					<rect x="51.7" y="6.7" class="st0" width="3.6" height="11.2"/>
					<path class="st0" d="M76.9,6.6c-3.3,0-6,2.6-6,5.8c0,3.2,2.7,5.8,6,5.8c2.4,0,4.4-0.8,5.7-2.9L79.9,14c-0.9,1-1.4,1.2-2.7,1.2
						c-1,0-2.4-0.6-2.4-2.3h7.9c0-0.1,0-0.4,0-0.5C82.8,8.6,80.3,6.6,76.9,6.6z M75,10.8c0.1-1,0.8-1.8,2.1-1.8
						c1.1,0,1.9,0.6,2.1,1.8H75z"/>
					<path class="st0" d="M90.7,9.7c1.1,0,1.8,0.5,1.8,0.5l1.3-2.6c0,0-1.2-1-3.7-1c-3.2,0-6.1,2.6-6.1,5.8c0,3.2,2.9,5.8,6.1,5.8
						c2.4,0,3.7-1,3.7-1l-1.3-2.6c0,0-0.7,0.5-1.8,0.5c-1.4,0-2.6-1.2-2.6-2.7C88.1,10.9,89.3,9.7,90.7,9.7z"/>
					<circle class="st0" cx="53.4" cy="3.4" r="2.2"/>
					<rect x="116.6" y="17.9" class="st0" width="9.6" height="3.4"/>
					<path class="st0" d="M65.8,0.8v7c-0.9-0.7-2.1-1.1-3.3-1.1c-3.2,0-5.8,2.6-5.8,5.8s2.6,5.8,5.8,5.8c1.2,0,2.4-0.4,3.3-1.1v0.8
						h3.7V0.8H65.8z M63.2,15c-1.4,0-2.6-1.2-2.6-2.6c0-1.4,1.2-2.6,2.6-2.6c1.4,0,2.6,1.2,2.6,2.6C65.8,13.8,64.6,15,63.2,15z"/>
					<path class="st0" d="M103.2,7.7c-0.9-0.7-2.1-1.1-3.3-1.1c-3.2,0-5.8,2.6-5.8,5.8s2.6,5.8,5.8,5.8c1.2,0,2.4-0.4,3.3-1.1v0.8
						h3.7V6.7h-3.7V7.7z M100.6,15c-1.4,0-2.6-1.2-2.6-2.6c0-1.4,1.2-2.6,2.6-2.6c1.4,0,2.6,1.2,2.6,2.6C103.2,13.8,102,15,100.6,15
						z"/>
					<path class="st0" d="M115.6,6.7c-1.2,0-2.4,0.4-3.3,1.1V6.7h-3.7v11.2h3.7v-5.5c0-1.4,1.2-2.6,2.6-2.6c0.6,0,1.2,0.2,1.7,0.6
						l1.6-3.2C117.4,6.9,116.5,6.7,115.6,6.7z"/>
				</g>
				<g>
					<path class="st0" d="M16.5,0.8v17.1h3.7v-0.8c0.9,0.7,2.1,1.1,3.3,1.1c3.2,0,5.8-2.6,5.8-5.8s-2.6-5.8-5.8-5.8
						c-1.2,0-2.4,0.4-3.3,1.1v-7H16.5z M22.8,15c-1.4,0-2.6-1.2-2.6-2.6c0-1.4,1.2-2.6,2.6-2.6c1.4,0,2.6,1.2,2.6,2.6
						C25.4,13.8,24.3,15,22.8,15z"/>
				</g>
				<polygon class="st0" points="37.3,6.7 34.8,11.4 32.6,6.7 28.7,6.7 32.7,15.5 29.7,21.2 33.8,21.2 41.4,6.7 				"/>
			</g>
		</g>
		<g id="XMLID_1_">
			<g id="XMLID_2_">
				<path id="XMLID_3_" class="st0" d="M49.7,7.5L48.5,10c0,0-1.3-0.7-2.4-0.7c-0.8,0-1.2,0.1-1.2,0.7c0,0.6,0.8,0.7,1.7,1
					c1.4,0.4,3.3,1.2,3.3,3.5c0,3.2-2.9,3.7-5.2,3.7c-2.6,0-4.2-1.5-4.2-1.5l1.5-2.6c0,0,1.5,1.2,2.7,1.2c0.5,0,1.2-0.1,1.2-0.8
					c0-0.8-1.2-0.8-2.4-1.5c-1.1-0.6-2.2-1.3-2.2-3c0-2.2,1.9-3.5,4.8-3.5C48.2,6.7,49.7,7.5,49.7,7.5z"/>
			</g>
		</g>
	</g>
</g>
</svg>
